solid OpenSCAD_Model
  facet normal -0 0 -1
    outer loop
      vertex -5.25 -7.25 -1.75
      vertex -9.25 -9.25 -1.75
      vertex -7.25 -4.25 -1.75
    endloop
  endfacet
  facet normal 0 0 -1
    outer loop
      vertex 5.25 5.25 -1.75
      vertex 7.25 3.25 -1.75
      vertex 5.25 3.25 -1.75
    endloop
  endfacet
  facet normal 0 0 -1
    outer loop
      vertex 7.25 3.25 -1.75
      vertex 9.25 -9.25 -1.75
      vertex 7.25 -4.25 -1.75
    endloop
  endfacet
  facet normal 0 -0 -1
    outer loop
      vertex 9.25 9.25 -1.75
      vertex 9.25 -9.25 -1.75
      vertex 7.25 3.25 -1.75
    endloop
  endfacet
  facet normal 0 0 -1
    outer loop
      vertex 9.25 9.25 -1.75
      vertex 7.25 3.25 -1.75
      vertex 5.25 5.25 -1.75
    endloop
  endfacet
  facet normal -0 0 -1
    outer loop
      vertex 7.25 -4.25 -1.75
      vertex 5.25 -7.25 -1.75
      vertex 5.25 -4.25 -1.75
    endloop
  endfacet
  facet normal 0 -0 -1
    outer loop
      vertex 7.25 -4.25 -1.75
      vertex 9.25 -9.25 -1.75
      vertex 5.25 -7.25 -1.75
    endloop
  endfacet
  facet normal -0 0 -1
    outer loop
      vertex 5.25 -7.25 -1.75
      vertex -9.25 -9.25 -1.75
      vertex -5.25 -7.25 -1.75
    endloop
  endfacet
  facet normal 0 -0 -1
    outer loop
      vertex 5.25 -7.25 -1.75
      vertex 9.25 -9.25 -1.75
      vertex -9.25 -9.25 -1.75
    endloop
  endfacet
  facet normal -0 -0 -1
    outer loop
      vertex -5.25 -4.25 -1.75
      vertex -5.25 -7.25 -1.75
      vertex -7.25 -4.25 -1.75
    endloop
  endfacet
  facet normal 0 0 -1
    outer loop
      vertex -9.25 -9.25 -1.75
      vertex -9.25 9.25 -1.75
      vertex -7.25 3.25 -1.75
    endloop
  endfacet
  facet normal 0 0 -1
    outer loop
      vertex -7.25 3.25 -1.75
      vertex -5.25 5.25 -1.75
      vertex -5.25 3.25 -1.75
    endloop
  endfacet
  facet normal 0 0 -1
    outer loop
      vertex -7.25 3.25 -1.75
      vertex -9.25 9.25 -1.75
      vertex -5.25 5.25 -1.75
    endloop
  endfacet
  facet normal -0 0 -1
    outer loop
      vertex -7.25 -4.25 -1.75
      vertex -9.25 -9.25 -1.75
      vertex -7.25 3.25 -1.75
    endloop
  endfacet
  facet normal 0 0 1
    outer loop
      vertex -7.25 -4.25 1.75
      vertex -9.25 -9.25 1.75
      vertex -5.25 -7.25 1.75
    endloop
  endfacet
  facet normal 0 0 1
    outer loop
      vertex 5.25 3.25 1.75
      vertex 7.25 3.25 1.75
      vertex 5.25 5.25 1.75
    endloop
  endfacet
  facet normal -0 0 1
    outer loop
      vertex 7.25 -4.25 1.75
      vertex 9.25 -9.25 1.75
      vertex 7.25 3.25 1.75
    endloop
  endfacet
  facet normal -0 0 1
    outer loop
      vertex 7.25 3.25 1.75
      vertex 9.25 -9.25 1.75
      vertex 9.25 9.25 1.75
    endloop
  endfacet
  facet normal -0 0 1
    outer loop
      vertex 5.25 5.25 1.75
      vertex 7.25 3.25 1.75
      vertex 9.25 9.25 1.75
    endloop
  endfacet
  facet normal -0 0 1
    outer loop
      vertex 5.25 -4.25 1.75
      vertex 5.25 -7.25 1.75
      vertex 7.25 -4.25 1.75
    endloop
  endfacet
  facet normal -0 0 1
    outer loop
      vertex 5.25 -7.25 1.75
      vertex 9.25 -9.25 1.75
      vertex 7.25 -4.25 1.75
    endloop
  endfacet
  facet normal -0 0 1
    outer loop
      vertex -5.25 -7.25 1.75
      vertex -9.25 -9.25 1.75
      vertex 5.25 -7.25 1.75
    endloop
  endfacet
  facet normal 0 0 1
    outer loop
      vertex -9.25 -9.25 1.75
      vertex 9.25 -9.25 1.75
      vertex 5.25 -7.25 1.75
    endloop
  endfacet
  facet normal -0 0 1
    outer loop
      vertex -7.25 -4.25 1.75
      vertex -5.25 -7.25 1.75
      vertex -5.25 -4.25 1.75
    endloop
  endfacet
  facet normal 0 0 1
    outer loop
      vertex -7.25 3.25 1.75
      vertex -9.25 9.25 1.75
      vertex -9.25 -9.25 1.75
    endloop
  endfacet
  facet normal 0 -0 1
    outer loop
      vertex -5.25 3.25 1.75
      vertex -5.25 5.25 1.75
      vertex -7.25 3.25 1.75
    endloop
  endfacet
  facet normal 0 0 1
    outer loop
      vertex -5.25 5.25 1.75
      vertex -9.25 9.25 1.75
      vertex -7.25 3.25 1.75
    endloop
  endfacet
  facet normal 0 0 1
    outer loop
      vertex -7.25 3.25 1.75
      vertex -9.25 -9.25 1.75
      vertex -7.25 -4.25 1.75
    endloop
  endfacet
  facet normal -0.707107 0.707107 0
    outer loop
      vertex 5.25 5.25 -1.75
      vertex 9.25 9.25 1.75
      vertex 9.25 9.25 -1.75
    endloop
  endfacet
  facet normal -0.707107 0.707107 0
    outer loop
      vertex 5.25 5.25 -1.75
      vertex 5.25 5.25 1.75
      vertex 9.25 9.25 1.75
    endloop
  endfacet
  facet normal -1 0 0
    outer loop
      vertex 5.25 3.25 -1.75
      vertex 5.25 5.25 1.75
      vertex 5.25 5.25 -1.75
    endloop
  endfacet
  facet normal -1 0 0
    outer loop
      vertex 5.25 3.25 -1.75
      vertex 5.25 3.25 1.75
      vertex 5.25 5.25 1.75
    endloop
  endfacet
  facet normal 0 -1 0
    outer loop
      vertex 7.25 3.25 -1.75
      vertex 5.25 3.25 1.75
      vertex 5.25 3.25 -1.75
    endloop
  endfacet
  facet normal 0 -1 0
    outer loop
      vertex 7.25 3.25 -1.75
      vertex 7.25 3.25 1.75
      vertex 5.25 3.25 1.75
    endloop
  endfacet
  facet normal -1 0 0
    outer loop
      vertex 7.25 -4.25 -1.75
      vertex 7.25 3.25 1.75
      vertex 7.25 3.25 -1.75
    endloop
  endfacet
  facet normal -1 0 0
    outer loop
      vertex 7.25 -4.25 -1.75
      vertex 7.25 -4.25 1.75
      vertex 7.25 3.25 1.75
    endloop
  endfacet
  facet normal 0 1 0
    outer loop
      vertex 5.25 -4.25 -1.75
      vertex 7.25 -4.25 1.75
      vertex 7.25 -4.25 -1.75
    endloop
  endfacet
  facet normal 0 1 0
    outer loop
      vertex 5.25 -4.25 -1.75
      vertex 5.25 -4.25 1.75
      vertex 7.25 -4.25 1.75
    endloop
  endfacet
  facet normal -1 0 0
    outer loop
      vertex 5.25 -7.25 -1.75
      vertex 5.25 -4.25 1.75
      vertex 5.25 -4.25 -1.75
    endloop
  endfacet
  facet normal -1 0 0
    outer loop
      vertex 5.25 -7.25 -1.75
      vertex 5.25 -7.25 1.75
      vertex 5.25 -4.25 1.75
    endloop
  endfacet
  facet normal 0 1 0
    outer loop
      vertex -5.25 -7.25 -1.75
      vertex 5.25 -7.25 1.75
      vertex 5.25 -7.25 -1.75
    endloop
  endfacet
  facet normal 0 1 0
    outer loop
      vertex -5.25 -7.25 -1.75
      vertex -5.25 -7.25 1.75
      vertex 5.25 -7.25 1.75
    endloop
  endfacet
  facet normal 1 0 0
    outer loop
      vertex -5.25 -4.25 -1.75
      vertex -5.25 -7.25 1.75
      vertex -5.25 -7.25 -1.75
    endloop
  endfacet
  facet normal 1 0 -0
    outer loop
      vertex -5.25 -4.25 -1.75
      vertex -5.25 -4.25 1.75
      vertex -5.25 -7.25 1.75
    endloop
  endfacet
  facet normal 0 1 0
    outer loop
      vertex -7.25 -4.25 -1.75
      vertex -5.25 -4.25 1.75
      vertex -5.25 -4.25 -1.75
    endloop
  endfacet
  facet normal 0 1 0
    outer loop
      vertex -7.25 -4.25 -1.75
      vertex -7.25 -4.25 1.75
      vertex -5.25 -4.25 1.75
    endloop
  endfacet
  facet normal 1 0 0
    outer loop
      vertex -7.25 3.25 -1.75
      vertex -7.25 -4.25 1.75
      vertex -7.25 -4.25 -1.75
    endloop
  endfacet
  facet normal 1 0 -0
    outer loop
      vertex -7.25 3.25 -1.75
      vertex -7.25 3.25 1.75
      vertex -7.25 -4.25 1.75
    endloop
  endfacet
  facet normal 0 -1 0
    outer loop
      vertex -5.25 3.25 -1.75
      vertex -7.25 3.25 1.75
      vertex -7.25 3.25 -1.75
    endloop
  endfacet
  facet normal 0 -1 0
    outer loop
      vertex -5.25 3.25 -1.75
      vertex -5.25 3.25 1.75
      vertex -7.25 3.25 1.75
    endloop
  endfacet
  facet normal 1 0 0
    outer loop
      vertex -5.25 5.25 -1.75
      vertex -5.25 3.25 1.75
      vertex -5.25 3.25 -1.75
    endloop
  endfacet
  facet normal 1 0 -0
    outer loop
      vertex -5.25 5.25 -1.75
      vertex -5.25 5.25 1.75
      vertex -5.25 3.25 1.75
    endloop
  endfacet
  facet normal 0.707107 0.707107 0
    outer loop
      vertex -9.25 9.25 -1.75
      vertex -5.25 5.25 1.75
      vertex -5.25 5.25 -1.75
    endloop
  endfacet
  facet normal 0.707107 0.707107 -0
    outer loop
      vertex -9.25 9.25 -1.75
      vertex -9.25 9.25 1.75
      vertex -5.25 5.25 1.75
    endloop
  endfacet
  facet normal -1 0 0
    outer loop
      vertex -9.25 -9.25 -1.75
      vertex -9.25 9.25 1.75
      vertex -9.25 9.25 -1.75
    endloop
  endfacet
  facet normal -1 0 0
    outer loop
      vertex -9.25 -9.25 -1.75
      vertex -9.25 -9.25 1.75
      vertex -9.25 9.25 1.75
    endloop
  endfacet
  facet normal 0 -1 0
    outer loop
      vertex 9.25 -9.25 -1.75
      vertex -9.25 -9.25 1.75
      vertex -9.25 -9.25 -1.75
    endloop
  endfacet
  facet normal 0 -1 0
    outer loop
      vertex 9.25 -9.25 -1.75
      vertex 9.25 -9.25 1.75
      vertex -9.25 -9.25 1.75
    endloop
  endfacet
  facet normal 1 0 0
    outer loop
      vertex 9.25 9.25 -1.75
      vertex 9.25 -9.25 1.75
      vertex 9.25 -9.25 -1.75
    endloop
  endfacet
  facet normal 1 0 -0
    outer loop
      vertex 9.25 9.25 -1.75
      vertex 9.25 9.25 1.75
      vertex 9.25 -9.25 1.75
    endloop
  endfacet
endsolid OpenSCAD_Model
